<svg width="46" height="47" viewBox="0 0 46 47" fill="none" xmlns="http://www.w3.org/2000/svg">
<path d="M23.1455 1.78684L25.6728 6.19086C26.2537 7.20307 27.5743 7.50497 28.5373 6.8457L32.7691 3.94861L33.0974 8.95503C33.1745 10.1294 34.2439 10.9838 35.4063 10.7995L40.4741 9.99601L38.5718 14.6119C38.1186 15.7115 38.7193 16.9611 39.861 17.2941L44.7414 18.7172L40.9936 22.0602C40.102 22.8555 40.102 24.25 40.9936 25.0453L44.7414 28.3883L39.861 29.8114C38.7193 30.1443 38.1186 31.394 38.5718 32.4935L40.4741 37.1095L35.4063 36.306C34.2439 36.1217 33.1745 36.976 33.0974 38.1504L32.7691 43.1569L28.5373 40.2598C27.5743 39.6005 26.2537 39.9024 25.6728 40.9146L23.1455 45.3186L20.6182 40.9146C20.0373 39.9024 18.7167 39.6005 17.7537 40.2598L13.5219 43.1569L13.1936 38.1504C13.1166 36.976 12.0471 36.1217 10.8847 36.306L5.81691 37.1095L7.71927 32.4935C8.17242 31.394 7.57173 30.1443 6.43004 29.8114L6.15009 30.7714L6.43003 29.8114L1.5496 28.3883L5.29741 25.0453C6.18898 24.25 6.18899 22.8555 5.29741 22.0602L1.5496 18.7172L6.43004 17.2941L6.15009 16.334L6.43004 17.2941C7.57173 16.9611 8.17242 15.7115 7.71927 14.6119L5.81691 9.99601L10.8847 10.7995C12.0471 10.9838 13.1166 10.1294 13.1936 8.95504L13.5219 3.94861L17.7537 6.8457C18.7167 7.50497 20.0373 7.20307 20.6182 6.19085L23.1455 1.78684Z" stroke="#2AA7D6" stroke-opacity="0.8" stroke-width="2"/>
</svg>
