<svg width="48" height="48" viewBox="0 0 48 48" fill="none" xmlns="http://www.w3.org/2000/svg">
<path d="M31.9548 23.8779L47.5858 32.419L43.5139 39.4304L27.6201 30.3794L27.7514 47.7166H19.8702L20.0016 30.3794L4.10779 39.4304L0.0358276 32.419L15.7983 23.8779L0.0358276 15.4642L4.10779 8.32534L20.0016 17.3764L19.8702 0.166626H27.7514L27.6201 17.3764L43.5139 8.32534L47.5858 15.4642L31.9548 23.8779Z" fill="#2AA7D6" fill-opacity="0.8"/>
<path d="M31.4808 22.9973L29.8572 23.8713L31.4752 24.7554L46.2056 32.8044L43.1471 38.0708L28.1149 29.5104L26.607 28.6516L26.6201 30.3869L26.7438 46.7166H20.8778L21.0015 30.3869L21.0147 28.6516L19.5067 29.5104L4.47457 38.0708L1.41786 32.8075L16.2747 24.7571L17.9095 23.8713L16.2692 22.9957L1.41402 15.0663L4.4813 9.68883L19.5067 18.2454L21.0148 19.1042L21.0015 17.3688L20.8779 1.16663H26.7438L26.6201 17.3688L26.6069 19.1042L28.1149 18.2454L43.1404 9.68883L46.2094 15.0694L31.4808 22.9973Z" stroke="#2AA7D6" stroke-opacity="0.8" stroke-width="2"/>
</svg>
