<svg width="39" height="44" viewBox="0 0 39 44" fill="none" xmlns="http://www.w3.org/2000/svg">
<path d="M34.7936 2.87032C30.1972 -0.629172 23.5792 0.196136 20.0193 4.71459L19.5034 5.37392L18.9828 4.71459C15.4182 0.196136 8.80496 -0.629172 4.20851 2.87032C-0.387925 6.36983 -1.22748 12.8755 2.33242 17.3939L6.17842 22.2766L2.33242 27.1594C-1.22748 31.6778 -0.387925 38.1789 4.20851 41.6829C6.12683 43.1445 8.39687 43.85 10.6482 43.85C13.7954 43.85 16.905 42.4714 18.9781 39.8387L19.494 39.1794L20.0099 39.8387C22.0877 42.4714 25.1974 43.85 28.3398 43.85C30.5911 43.85 32.8612 43.1399 34.7795 41.6829C39.376 38.1835 40.2155 31.6778 36.6556 27.1594L32.8097 22.2766L36.6556 17.3939C40.2296 12.8755 39.39 6.37443 34.7936 2.87032Z" fill="#2AA7D6" fill-opacity="0.8"/>
</svg>
