<svg width="31" height="31" viewBox="0 0 31 31" fill="none" xmlns="http://www.w3.org/2000/svg">
<g clip-path="url(#clip0_120_157)">
<path fill-rule="evenodd" clip-rule="evenodd" d="M15.4946 0.775024C11.8378 0.776922 8.30099 2.07207 5.51648 4.42887C2.73198 6.78568 0.881379 10.0505 0.295589 13.6394C-0.290202 17.2284 0.427008 20.9076 2.31899 24.019C4.21097 27.1305 7.15434 29.4713 10.6228 30.623C11.388 30.765 11.6762 30.2907 11.6762 29.8875C11.6762 29.4842 11.6609 28.3151 11.6558 27.0369C7.3707 27.9625 6.46522 25.2286 6.46522 25.2286C5.76634 23.4533 4.75628 22.9866 4.75628 22.9866C3.35852 22.0381 4.86087 22.0559 4.86087 22.0559C6.40912 22.1649 7.22278 23.6359 7.22278 23.6359C8.59503 25.9767 10.8268 25.2996 11.7043 24.904C11.842 23.9123 12.2425 23.2377 12.6837 22.8547C9.26075 22.4693 5.66431 21.1555 5.66431 15.2869C5.6431 13.7649 6.21112 12.293 7.25083 11.1758C7.09269 10.7903 6.5647 9.23309 7.40131 7.11794C7.40131 7.11794 8.69451 6.70708 11.638 8.68781C14.1627 8.00131 16.8264 8.00131 19.3512 8.68781C22.2921 6.70708 23.5827 7.11794 23.5827 7.11794C24.4218 9.22801 23.8939 10.7852 23.7357 11.1758C24.7787 12.2932 25.3479 13.7676 25.3248 15.2919C25.3248 21.1733 21.7207 22.4693 18.2926 22.8471C18.8436 23.3239 19.3358 24.2547 19.3358 25.6851C19.3358 27.7343 19.318 29.3828 19.318 29.8875C19.318 30.2958 19.596 30.7726 20.3765 30.623C23.8454 29.4712 26.789 27.1299 28.681 24.0179C30.5729 20.906 31.2898 17.2263 30.7033 13.6369C30.1168 10.0476 28.2653 6.78281 25.4799 4.42641C22.6945 2.07001 19.1568 0.775719 15.4996 0.775024H15.4946Z" fill="#2AA7D6"/>
<path d="M5.92413 22.766C5.89098 22.8421 5.76854 22.8649 5.66907 22.8116C5.56959 22.7584 5.49563 22.6595 5.53134 22.5808C5.56705 22.5022 5.68693 22.4819 5.7864 22.5352C5.88588 22.5884 5.96239 22.6899 5.92413 22.766Z" fill="#2AA7D6"/>
<path d="M6.54909 23.4583C6.49627 23.4848 6.43583 23.4922 6.37814 23.4792C6.32044 23.4663 6.26907 23.4338 6.23281 23.3873C6.13333 23.2808 6.11292 23.1337 6.18944 23.0678C6.26596 23.0018 6.4037 23.0323 6.50318 23.1388C6.60265 23.2453 6.62561 23.3924 6.54909 23.4583Z" fill="#2AA7D6"/>
<path d="M7.15609 24.3384C7.06172 24.4043 6.90102 24.3384 6.81174 24.2065C6.78706 24.1828 6.76743 24.1545 6.75402 24.1231C6.7406 24.0917 6.73368 24.058 6.73368 24.0239C6.73368 23.9898 6.7406 23.9561 6.75402 23.9247C6.76743 23.8933 6.78706 23.865 6.81174 23.8413C6.90612 23.7779 7.06682 23.8413 7.15609 23.9706C7.24536 24.1 7.24791 24.2724 7.15609 24.3384Z" fill="#2AA7D6"/>
<path d="M7.97999 25.1906C7.89582 25.2844 7.72493 25.259 7.58465 25.1322C7.44436 25.0054 7.41119 24.833 7.49536 24.7417C7.57954 24.6504 7.75043 24.6757 7.89582 24.8C8.04121 24.9243 8.06927 25.0993 7.97999 25.1906Z" fill="#2AA7D6"/>
<path d="M9.13539 25.6876C9.09713 25.8068 8.92368 25.8601 8.75024 25.8094C8.57679 25.7586 8.46201 25.6166 8.49517 25.4949C8.52833 25.3731 8.70433 25.3173 8.88032 25.3731C9.05632 25.4289 9.16855 25.5634 9.13539 25.6876Z" fill="#2AA7D6"/>
<path d="M10.3955 25.7738C10.3955 25.8981 10.2527 26.0046 10.0691 26.0072C9.88542 26.0097 9.73493 25.9082 9.73493 25.784C9.73493 25.6597 9.87776 25.5532 10.0614 25.5506C10.2451 25.5481 10.3955 25.647 10.3955 25.7738Z" fill="#2AA7D6"/>
<path d="M11.5687 25.5786C11.5917 25.7029 11.4641 25.8322 11.2805 25.8626C11.0968 25.8931 10.9361 25.8195 10.9132 25.6978C10.8902 25.576 11.0229 25.4442 11.2014 25.4112C11.38 25.3782 11.5458 25.4543 11.5687 25.5786Z" fill="#2AA7D6"/>
</g>
<defs>
<clipPath id="clip0_120_157">
<rect width="31" height="31" rx="6" fill="white"/>
</clipPath>
</defs>
</svg>
