<svg width="31" height="31" viewBox="0 0 31 31" fill="none" xmlns="http://www.w3.org/2000/svg">
<g clip-path="url(#clip0_420_378)">
<path fill-rule="evenodd" clip-rule="evenodd" d="M15.4945 0.774902C11.8378 0.7768 8.30095 2.07195 5.51645 4.42875C2.73194 6.78556 0.881345 10.0503 0.295554 13.6393C-0.290236 17.2283 0.426974 20.9075 2.31896 24.0189C4.21094 27.1303 7.15431 29.4712 10.6228 30.6228C11.388 30.7649 11.6762 30.2906 11.6762 29.8874C11.6762 29.4841 11.6609 28.315 11.6558 27.0367C7.37067 27.9624 6.46519 25.2285 6.46519 25.2285C5.76631 23.4532 4.75625 22.9865 4.75625 22.9865C3.35849 22.038 4.86083 22.0557 4.86083 22.0557C6.40908 22.1648 7.22274 23.6358 7.22274 23.6358C8.595 25.9766 10.8268 25.2995 11.7042 24.9038C11.842 23.9122 12.2424 23.2376 12.6837 22.8546C9.26071 22.4691 5.66428 21.1554 5.66428 15.2868C5.64307 13.7647 6.21108 12.2929 7.2508 11.1757C7.09266 10.7902 6.56466 9.23296 7.40128 7.11782C7.40128 7.11782 8.69447 6.70696 11.6379 8.68769C14.1626 8.00119 16.8264 8.00119 19.3511 8.68769C22.292 6.70696 23.5826 7.11782 23.5826 7.11782C24.4218 9.22789 23.8938 10.7851 23.7357 11.1757C24.7787 12.2931 25.3479 13.7675 25.3248 15.2918C25.3248 21.1732 21.7207 22.4691 18.2926 22.847C18.8435 23.3238 19.3358 24.2546 19.3358 25.685C19.3358 27.7342 19.318 29.3827 19.318 29.8874C19.318 30.2957 19.596 30.7725 20.3765 30.6228C23.8453 29.471 26.789 27.1298 28.6809 24.0178C30.5729 20.9058 31.2897 17.2261 30.7033 13.6368C30.1168 10.0475 28.2653 6.78269 25.4799 4.42629C22.6944 2.06989 19.1568 0.775597 15.4996 0.774902H15.4945Z" fill="#A5A5A5" fill-opacity="0.8"/>
<path d="M5.92413 22.7659C5.89098 22.8419 5.76854 22.8648 5.66907 22.8115C5.56959 22.7582 5.49563 22.6593 5.53134 22.5807C5.56705 22.5021 5.68693 22.4818 5.7864 22.5351C5.88588 22.5883 5.96239 22.6898 5.92413 22.7659Z" fill="#A5A5A5" fill-opacity="0.8"/>
<path d="M6.54906 23.458C6.49624 23.4844 6.43581 23.4918 6.37811 23.4789C6.32041 23.4659 6.26904 23.4334 6.23278 23.387C6.13331 23.2804 6.11289 23.1334 6.18941 23.0674C6.26593 23.0015 6.40368 23.0319 6.50315 23.1384C6.60263 23.2449 6.62558 23.392 6.54906 23.458Z" fill="#A5A5A5" fill-opacity="0.8"/>
<path d="M7.15605 24.3383C7.06167 24.4043 6.90097 24.3383 6.8117 24.2064C6.78701 24.1828 6.76739 24.1544 6.75397 24.123C6.74056 24.0917 6.73364 24.0579 6.73364 24.0238C6.73364 23.9897 6.74056 23.956 6.75397 23.9246C6.76739 23.8933 6.78701 23.8649 6.8117 23.8412C6.90607 23.7778 7.06678 23.8412 7.15605 23.9706C7.24532 24.0999 7.24787 24.2724 7.15605 24.3383V24.3383Z" fill="#A5A5A5" fill-opacity="0.8"/>
<path d="M7.97998 25.1906C7.89581 25.2845 7.72492 25.2591 7.58463 25.1323C7.44435 25.0055 7.41118 24.833 7.49535 24.7417C7.57952 24.6504 7.75042 24.6758 7.89581 24.8C8.04119 24.9243 8.06926 25.0993 7.97998 25.1906V25.1906Z" fill="#A5A5A5" fill-opacity="0.8"/>
<path d="M9.1353 25.6873C9.09704 25.8065 8.9236 25.8597 8.75015 25.809C8.57671 25.7583 8.46193 25.6162 8.49509 25.4945C8.52824 25.3728 8.70424 25.317 8.88024 25.3728C9.05623 25.4286 9.16846 25.563 9.1353 25.6873Z" fill="#A5A5A5" fill-opacity="0.8"/>
<path d="M10.3955 25.7735C10.3955 25.8978 10.2526 26.0043 10.069 26.0068C9.88535 26.0094 9.73486 25.9079 9.73486 25.7837C9.73486 25.6594 9.87769 25.5529 10.0613 25.5503C10.245 25.5478 10.3955 25.6467 10.3955 25.7735Z" fill="#A5A5A5" fill-opacity="0.8"/>
<path d="M11.5686 25.5784C11.5916 25.7027 11.4641 25.832 11.2804 25.8625C11.0968 25.8929 10.9361 25.8193 10.9131 25.6976C10.8902 25.5759 11.0228 25.444 11.2013 25.411C11.3799 25.3781 11.5457 25.4541 11.5686 25.5784Z" fill="#A5A5A5" fill-opacity="0.8"/>
</g>
<defs>
<clipPath id="clip0_420_378">
<rect width="31" height="31" rx="6" fill="white"/>
</clipPath>
</defs>
</svg>
