<svg width="38" height="38" viewBox="0 0 38 38" fill="none" xmlns="http://www.w3.org/2000/svg">
<path d="M37.8936 11.1657C37.8024 9.14251 37.4755 7.75821 37.0118 6.54884C36.5253 5.30144 35.8792 4.23659 34.8226 3.18695C33.766 2.13731 32.7094 1.47558 31.4627 0.996397C30.2541 0.52482 28.8706 0.205364 26.8486 0.114091C24.819 0.0228183 24.1729 0 19.019 0C13.8576 0 13.2115 0.0228183 11.1895 0.114091C9.16746 0.205364 7.78398 0.532426 6.57534 0.996397C5.32109 1.48319 4.25687 2.1297 3.20786 3.18695C2.15885 4.2442 1.49752 5.30144 1.01863 6.54884C0.554934 7.75821 0.228068 9.14251 0.13685 11.1657C0.0456317 13.1966 0.0228271 13.8431 0.0228271 19C0.0228271 24.1645 0.0456317 24.811 0.13685 26.8343C0.228068 28.8575 0.554934 30.2418 1.01863 31.4512C1.50512 32.6986 2.15125 33.7634 3.20786 34.8131C4.25687 35.8703 5.32109 36.5244 6.56774 37.0036C7.77638 37.4752 9.15985 37.7946 11.1819 37.8859C13.2115 37.9772 13.8576 38 19.0114 38C24.1729 38 24.819 37.9772 26.841 37.8859C28.863 37.7946 30.2465 37.4676 31.4551 37.0036C32.7018 36.5168 33.766 35.8703 34.815 34.8131C35.864 33.7558 36.5253 32.6986 37.0042 31.4512C37.4755 30.2418 37.7948 28.8575 37.886 26.8343C37.9772 24.8034 38 24.1569 38 19C38 13.8431 37.9848 13.189 37.8936 11.1657ZM34.4805 26.6821C34.3969 28.538 34.0852 29.5496 33.8268 30.2114C33.4847 31.0937 33.0666 31.7326 32.3977 32.4019C31.7288 33.0713 31.0978 33.4744 30.2085 33.8319C29.5395 34.0905 28.5285 34.4023 26.6814 34.486C24.6822 34.5773 24.0816 34.6001 19.0038 34.6001C13.926 34.6001 13.3255 34.5773 11.3263 34.486C9.47152 34.4023 8.46051 34.0905 7.79918 33.8319C6.91741 33.4896 6.27888 33.0713 5.60994 32.4019C4.94101 31.7326 4.53813 31.1013 4.18086 30.2114C3.92241 29.542 3.61074 28.5304 3.52713 26.6821C3.43591 24.6817 3.41311 24.0809 3.41311 19C3.41311 13.9191 3.43591 13.3183 3.52713 11.3179C3.61074 9.46197 3.92241 8.45036 4.18086 7.78863C4.52293 6.90633 4.94101 6.26741 5.60994 5.59808C6.27888 4.92874 6.9098 4.52562 7.79918 4.16813C8.46812 3.90953 9.47912 3.59768 11.3263 3.51401C13.3255 3.42274 13.926 3.39992 19.0038 3.39992C24.0816 3.39992 24.6822 3.42274 26.6814 3.51401C28.5361 3.59768 29.5471 3.90953 30.2085 4.16813C31.0902 4.51041 31.7288 4.92874 32.3977 5.59808C33.0666 6.26741 33.4695 6.89872 33.8268 7.78863C34.0852 8.45797 34.3969 9.46958 34.4805 11.3179C34.5717 13.3183 34.5945 13.9191 34.5945 19C34.5945 24.0809 34.5641 24.6817 34.4805 26.6821Z" fill="#A5A5A5" fill-opacity="0.8"/>
<path d="M19.0039 9.23389C13.6068 9.23389 9.24353 13.6074 9.24353 19.0001C9.24353 24.4004 13.6144 28.7663 19.0039 28.7663C24.3934 28.7663 28.7642 24.3852 28.7642 19.0001C28.7642 13.5998 24.401 9.23389 19.0039 9.23389ZM19.0039 25.336C15.5072 25.336 12.6718 22.4989 12.6718 19.0001C12.6718 15.5013 15.5072 12.6642 19.0039 12.6642C22.5006 12.6642 25.3359 15.5013 25.3359 19.0001C25.3359 22.4989 22.5006 25.336 19.0039 25.336Z" fill="#A5A5A5" fill-opacity="0.8"/>
<path d="M29.1442 11.1354C30.4037 11.1354 31.4247 10.1138 31.4247 8.8536C31.4247 7.59339 30.4037 6.57178 29.1442 6.57178C27.8848 6.57178 26.8638 7.59339 26.8638 8.8536C26.8638 10.1138 27.8848 11.1354 29.1442 11.1354Z" fill="#A5A5A5" fill-opacity="0.8"/>
<path d="M0 19C0 24.1645 0.0228046 24.811 0.114023 26.8343C0.205241 28.8575 0.532106 30.2418 0.995799 31.4512C1.4823 32.6986 2.12843 33.7634 3.18504 34.8131C4.23405 35.8627 5.29826 36.5244 6.54491 37.0036C7.75355 37.4752 9.13703 37.7946 11.159 37.8859C13.1886 37.9772 13.8348 38 18.9886 38C24.15 38 24.7962 37.9772 26.8182 37.8859C28.8402 37.7946 30.2236 37.4676 31.4323 37.0036C32.6789 36.5168 33.7432 35.8703 34.7922 34.8131C35.8412 33.7634 36.5025 32.6986 36.9814 31.4512C37.4527 30.2418 37.772 28.8575 37.8632 26.8343C37.9544 24.8034 37.9772 24.1569 37.9772 19C37.9772 13.8355 37.9544 13.189 37.8632 11.1657C37.772 9.14251 37.4451 7.75821 36.9814 6.54884C36.4949 5.30144 35.8488 4.23659 34.7922 3.18695C33.7508 2.1297 32.6865 1.47558 31.4399 0.996397C30.2312 0.52482 28.8478 0.205364 26.8258 0.114091C24.7962 0.0228183 24.15 0 18.9962 0C13.8348 0 13.1886 0.0228183 11.1666 0.114091C9.14463 0.205364 7.76115 0.532426 6.55251 0.996397C5.30586 1.48319 4.24165 2.1297 3.19264 3.18695C2.14363 4.2442 1.4823 5.30144 1.0034 6.54884C0.532106 7.75821 0.205241 9.14251 0.114023 11.1657C0.0228046 13.189 0 13.8355 0 19ZM3.42829 19C3.42829 13.9267 3.45109 13.3183 3.54231 11.3179C3.62593 9.46197 3.93759 8.45036 4.19604 7.78863C4.53811 6.90633 4.95619 6.26741 5.62513 5.59808C6.29406 4.92874 6.92499 4.52562 7.81436 4.16813C8.4833 3.90953 9.4943 3.59768 11.3415 3.51401C13.3407 3.42274 13.9412 3.39992 19.019 3.39992C24.0968 3.39992 24.6973 3.42274 26.6965 3.51401C28.5513 3.59768 29.5623 3.90953 30.2236 4.16813C31.1054 4.51041 31.7439 4.92874 32.4129 5.59808C33.0818 6.26741 33.4847 6.89872 33.842 7.78863C34.1004 8.45797 34.4121 9.46958 34.4957 11.3179C34.5869 13.3183 34.6097 13.9191 34.6097 19C34.6097 24.0809 34.5869 24.6817 34.4957 26.6821C34.4121 28.538 34.1004 29.5496 33.842 30.2114C33.4999 31.0937 33.0818 31.7326 32.4129 32.4019C31.7439 33.0713 31.113 33.4744 30.2236 33.8319C29.5547 34.0905 28.5437 34.4023 26.6965 34.486C24.6973 34.5773 24.0968 34.6001 19.019 34.6001C13.9412 34.6001 13.3407 34.5773 11.3415 34.486C9.4867 34.4023 8.4757 34.0905 7.81436 33.8319C6.93259 33.4896 6.29406 33.0713 5.62513 32.4019C4.95619 31.7326 4.55331 31.1013 4.19604 30.2114C3.93759 29.542 3.62593 28.5304 3.54231 26.6821C3.44349 24.6817 3.42829 24.0733 3.42829 19Z" fill="#A5A5A5" fill-opacity="0.8"/>
</svg>
