<svg width="39" height="38" viewBox="0 0 39 38" fill="none" xmlns="http://www.w3.org/2000/svg">
<path d="M38.8436 11.1657C38.7524 9.14252 38.4255 7.75821 37.9618 6.54884C37.4753 5.30144 36.8292 4.23659 35.7726 3.18695C34.716 2.13731 33.6593 1.47558 32.4127 0.996397C31.2041 0.52482 29.8206 0.205364 27.7986 0.114091C25.769 0.0228183 25.1228 0 19.969 0C14.8076 0 14.1614 0.0228183 12.1394 0.114091C10.1174 0.205364 8.73396 0.532426 7.52532 0.996397C6.27106 1.48319 5.20685 2.1297 4.15784 3.18695C3.10883 4.2442 2.4475 5.30144 1.9686 6.54884C1.50491 7.75821 1.17805 9.14252 1.08683 11.1657C0.99561 13.1966 0.972805 13.8431 0.972805 19C0.972805 24.1645 0.99561 24.8111 1.08683 26.8343C1.17805 28.8575 1.50491 30.2418 1.9686 31.4512C2.4551 32.6986 3.10123 33.7634 4.15784 34.8131C5.20685 35.8703 6.27106 36.5244 7.51771 37.0036C8.72636 37.4752 10.1098 37.7946 12.1318 37.8859C14.1614 37.9772 14.8076 38 19.9614 38C25.1228 38 25.769 37.9772 27.791 37.8859C29.813 37.7946 31.1965 37.4676 32.4051 37.0036C33.6517 36.5168 34.716 35.8703 35.765 34.8131C36.814 33.7558 37.4753 32.6986 37.9542 31.4512C38.4255 30.2418 38.7448 28.8575 38.836 26.8343C38.9272 24.8034 38.95 24.1569 38.95 19C38.95 13.8431 38.9348 13.189 38.8436 11.1657ZM35.4305 26.6821C35.3469 28.538 35.0352 29.5496 34.7768 30.2114C34.4347 31.0937 34.0166 31.7326 33.3477 32.4019C32.6787 33.0713 32.0478 33.4744 31.1584 33.8319C30.4895 34.0905 29.4785 34.4023 27.6313 34.486C25.6321 34.5773 25.0316 34.6001 19.9538 34.6001C14.876 34.6001 14.2755 34.5773 12.2763 34.486C10.4215 34.4023 9.41049 34.0905 8.74916 33.8319C7.86738 33.4896 7.22886 33.0713 6.55992 32.4019C5.89099 31.7326 5.48811 31.1013 5.13084 30.2114C4.87239 29.542 4.56072 28.5304 4.47711 26.6821C4.38589 24.6817 4.36308 24.0809 4.36308 19C4.36308 13.9191 4.38589 13.3183 4.47711 11.3179C4.56072 9.46197 4.87239 8.45036 5.13084 7.78863C5.47291 6.90633 5.89099 6.26742 6.55992 5.59808C7.22886 4.92874 7.85978 4.52562 8.74916 4.16813C9.41809 3.90953 10.4291 3.59768 12.2763 3.51401C14.2755 3.42274 14.876 3.39992 19.9538 3.39992C25.0316 3.39992 25.6321 3.42274 27.6313 3.51401C29.4861 3.59768 30.4971 3.90953 31.1584 4.16813C32.0402 4.51041 32.6787 4.92874 33.3477 5.59808C34.0166 6.26742 34.4195 6.89872 34.7768 7.78863C35.0352 8.45797 35.3469 9.46958 35.4305 11.3179C35.5217 13.3183 35.5445 13.9191 35.5445 19C35.5445 24.0809 35.5141 24.6817 35.4305 26.6821Z" fill="#2AA7D6"/>
<path d="M19.9539 9.23376C14.5568 9.23376 10.1935 13.6073 10.1935 19C10.1935 24.4003 14.5644 28.7662 19.9539 28.7662C25.3433 28.7662 29.7142 24.3851 29.7142 19C29.7142 13.5997 25.3509 9.23376 19.9539 9.23376ZM19.9539 25.3358C16.4572 25.3358 13.6218 22.4988 13.6218 19C13.6218 15.5012 16.4572 12.6641 19.9539 12.6641C23.4506 12.6641 26.2859 15.5012 26.2859 19C26.2859 22.4988 23.4506 25.3358 19.9539 25.3358Z" fill="#2AA7D6"/>
<path d="M30.0943 11.1353C31.3537 11.1353 32.3747 10.1137 32.3747 8.85348C32.3747 7.59326 31.3537 6.57166 30.0943 6.57166C28.8348 6.57166 27.8138 7.59326 27.8138 8.85348C27.8138 10.1137 28.8348 11.1353 30.0943 11.1353Z" fill="#2AA7D6"/>
<path d="M0.949997 19C0.949997 24.1645 0.972802 24.8111 1.06402 26.8343C1.15524 28.8575 1.4821 30.2418 1.9458 31.4512C2.43229 32.6986 3.07842 33.7634 4.13503 34.8131C5.18404 35.8627 6.24826 36.5244 7.49491 37.0036C8.70355 37.4752 10.087 37.7946 12.109 37.8859C14.1386 37.9772 14.7848 38 19.9386 38C25.1 38 25.7462 37.9772 27.7682 37.8859C29.7902 37.7946 31.1736 37.4676 32.3823 37.0036C33.6289 36.5168 34.6931 35.8703 35.7422 34.8131C36.7912 33.7634 37.4525 32.6986 37.9314 31.4512C38.4027 30.2418 38.722 28.8575 38.8132 26.8343C38.9044 24.8034 38.9272 24.1569 38.9272 19C38.9272 13.8355 38.9044 13.189 38.8132 11.1657C38.722 9.14252 38.3951 7.75821 37.9314 6.54884C37.4449 5.30144 36.7988 4.23659 35.7422 3.18695C34.7007 2.1297 33.6365 1.47558 32.3899 0.996397C31.1812 0.52482 29.7978 0.205364 27.7758 0.114091C25.7462 0.0228183 25.1 0 19.9462 0C14.7848 0 14.1386 0.0228183 12.1166 0.114091C10.0946 0.205364 8.71115 0.532426 7.50251 0.996397C6.25586 1.48319 5.19165 2.1297 4.14264 3.18695C3.09363 4.2442 2.43229 5.30144 1.9534 6.54884C1.4821 7.75821 1.15524 9.14252 1.06402 11.1657C0.972802 13.189 0.949997 13.8355 0.949997 19ZM4.37828 19C4.37828 13.9267 4.40109 13.3183 4.49231 11.3179C4.57592 9.46197 4.88758 8.45036 5.14604 7.78863C5.4881 6.90633 5.90619 6.26742 6.57512 5.59808C7.24406 4.92874 7.87498 4.52562 8.76436 4.16813C9.43329 3.90953 10.4443 3.59768 12.2915 3.51401C14.2907 3.42274 14.8912 3.39992 19.969 3.39992C25.0468 3.39992 25.6473 3.42274 27.6465 3.51401C29.5013 3.59768 30.5123 3.90953 31.1736 4.16813C32.0554 4.51041 32.6939 4.92874 33.3629 5.59808C34.0318 6.26742 34.4347 6.89872 34.792 7.78863C35.0504 8.45797 35.3621 9.46958 35.4457 11.3179C35.5369 13.3183 35.5597 13.9191 35.5597 19C35.5597 24.0809 35.5369 24.6817 35.4457 26.6821C35.3621 28.538 35.0504 29.5496 34.792 30.2114C34.4499 31.0937 34.0318 31.7326 33.3629 32.4019C32.6939 33.0713 32.063 33.4744 31.1736 33.8319C30.5047 34.0905 29.4937 34.4023 27.6465 34.486C25.6473 34.5773 25.0468 34.6001 19.969 34.6001C14.8912 34.6001 14.2907 34.5773 12.2915 34.486C10.4367 34.4023 9.42569 34.0905 8.76436 33.8319C7.88258 33.4896 7.24406 33.0713 6.57512 32.4019C5.90619 31.7326 5.50331 31.1013 5.14604 30.2114C4.88758 29.542 4.57592 28.5304 4.49231 26.6821C4.39349 24.6817 4.37828 24.0733 4.37828 19Z" fill="#2AA7D6"/>
</svg>
