<svg width="31" height="31" viewBox="0 0 31 31" fill="none" xmlns="http://www.w3.org/2000/svg">
<g clip-path="url(#clip0_420_377)">
<path d="M0 4.13546C0 3.13801 0.349109 2.31513 1.0473 1.66683C1.74549 1.01849 2.65316 0.694336 3.77027 0.694336C4.86745 0.694336 5.75514 1.01349 6.4334 1.65186C7.13159 2.31017 7.4807 3.16793 7.4807 4.22522C7.4807 5.18275 7.14158 5.98067 6.46332 6.61905C5.76513 7.27735 4.84749 7.6065 3.71042 7.6065H3.6805C2.58332 7.6065 1.69563 7.27735 1.01737 6.61905C0.339115 5.96074 0 5.13287 0 4.13546ZM0.388996 30.3179V10.3295H7.03185V30.3179H0.388996ZM10.7124 30.3179H17.3552V19.1567C17.3552 18.4585 17.435 17.9199 17.5946 17.5409C17.8739 16.8626 18.2978 16.2891 18.8663 15.8203C19.4348 15.3515 20.148 15.1171 21.0058 15.1171C23.24 15.1171 24.3571 16.6232 24.3571 19.6355V30.3179H31V18.8575C31 15.9051 30.3018 13.6659 28.9054 12.1398C27.509 10.6137 25.6638 9.85071 23.3697 9.85071C20.7963 9.85071 18.7915 10.9578 17.3552 13.1721V13.232H17.3253L17.3552 13.1721V10.3295H10.7124C10.7522 10.9678 10.7722 12.9527 10.7722 16.2841C10.7722 19.6155 10.7522 24.2934 10.7124 30.3179Z" fill="#A5A5A5" fill-opacity="0.8"/>
</g>
<defs>
<clipPath id="clip0_420_377">
<rect width="31" height="31" fill="white"/>
</clipPath>
</defs>
</svg>
