<svg width="32" height="31" viewBox="0 0 32 31" fill="none" xmlns="http://www.w3.org/2000/svg">
<g clip-path="url(#clip0_120_155)">
<path d="M0.825001 4.13552C0.825001 3.13807 1.17411 2.31519 1.8723 1.66689C2.57049 1.01855 3.47816 0.694397 4.59527 0.694397C5.69245 0.694397 6.58014 1.01355 7.2584 1.65193C7.95659 2.31023 8.3057 3.16799 8.3057 4.22528C8.3057 5.18281 7.96658 5.98073 7.28832 6.61911C6.59013 7.27741 5.67249 7.60656 4.53543 7.60656H4.5055C3.40832 7.60656 2.52064 7.27741 1.84238 6.61911C1.16412 5.96081 0.825001 5.13293 0.825001 4.13552ZM1.214 30.3179V10.3295H7.85685V30.3179H1.214ZM11.5374 30.3179H18.1802V19.1568C18.1802 18.4585 18.26 17.9199 18.4196 17.5409C18.6989 16.8627 19.1228 16.2891 19.6913 15.8204C20.2598 15.3516 20.973 15.1172 21.8308 15.1172C24.065 15.1172 25.1821 16.6233 25.1821 19.6355V30.3179H31.825V18.8575C31.825 15.9051 31.1268 13.6659 29.7304 12.1399C28.334 10.6138 26.4888 9.85077 24.1947 9.85077C21.6213 9.85077 19.6165 10.9579 18.1802 13.1722V13.232H18.1503L18.1802 13.1722V10.3295H11.5374C11.5772 10.9679 11.5972 12.9527 11.5972 16.2842C11.5972 19.6156 11.5772 24.2935 11.5374 30.3179Z" fill="#2AA7D6"/>
</g>
<defs>
<clipPath id="clip0_120_155">
<rect width="31" height="31" fill="white" transform="translate(0.825001)"/>
</clipPath>
</defs>
</svg>
