<?xml version="1.0" standalone="no"?>
<!DOCTYPE svg PUBLIC "-//W3C//DTD SVG 20010904//EN"
 "http://www.w3.org/TR/2001/REC-SVG-20010904/DTD/svg10.dtd">
<svg version="1.0" xmlns="http://www.w3.org/2000/svg"
 width="225.000000pt" height="225.000000pt" viewBox="0 0 225.000000 225.000000"
 preserveAspectRatio="xMidYMid meet">

<g transform="translate(0.000000,225.000000) scale(0.100000,-0.100000)"
fill="#000000" stroke="none">
<path d="M955 2233 c-80 -12 -196 -48 -285 -87 -305 -134 -529 -396 -621 -726
-31 -110 -32 -122 -31 -292 1 -163 3 -186 31 -292 51 -197 134 -339 290 -499
106 -109 188 -169 313 -226 270 -126 667 -128 936 -6 28 13 52 30 52 37 0 7
-71 107 -157 223 -136 182 -362 506 -557 798 -32 48 -62 87 -66 87 -4 0 -9
-141 -12 -314 -3 -243 -7 -317 -17 -330 -17 -20 -90 -21 -117 -2 -18 14 -19
29 -17 466 2 324 6 456 14 466 7 9 31 14 64 14 62 0 63 -1 160 -150 38 -60
140 -214 225 -342 86 -128 248 -374 360 -545 160 -244 210 -313 226 -313 25 0
151 106 216 182 113 132 204 306 243 463 22 88 25 122 25 284 0 175 -1 189
-30 289 -63 218 -127 328 -284 490 -146 151 -285 233 -501 298 -80 23 -109 27
-260 29 -93 2 -183 1 -200 -2z m576 -669 c17 -21 28 -799 11 -816 -7 -7 -33
24 -84 98 l-73 109 3 300 c2 188 8 305 14 312 16 19 112 17 129 -3z"/>
</g>
</svg>
